<svg id="SvgjsSvg1744" width="1108" height="451.5" xmlns="http://www.w3.org/2000/svg" version="1.1" xmlns:xlink="http://www.w3.org/1999/xlink" xmlns:svgjs="http://svgjs.com/svgjs"><defs id="SvgjsDefs1745"><marker id="SvgjsMarker1774" markerWidth="14" markerHeight="12" refX="16" refY="6" viewBox="0 0 14 12" orient="auto" markerUnits="userSpaceOnUse" stroke-dasharray="0,0"><path id="SvgjsPath1775" d="M1,1 L14,6 L1,11L1,1" fill="#ffffff" stroke="#323232" stroke-width="2"></path></marker><marker id="SvgjsMarker1818" markerWidth="14" markerHeight="12" refX="16" refY="6" viewBox="0 0 14 12" orient="auto" markerUnits="userSpaceOnUse" stroke-dasharray="0,0"><path id="SvgjsPath1819" d="M1,1 L14,6 L1,11L1,1" fill="#ffffff" stroke="#323232" stroke-width="2"></path></marker><marker id="SvgjsMarker1822" markerWidth="16" markerHeight="16" refX="11" refY="8" viewBox="0 0 16 16" orient="auto" markerUnits="userSpaceOnUse" stroke-dasharray="0,0"><path id="SvgjsPath1823" d="M0,0 L10,8 L0,16" fill="none" stroke="#323232" stroke-width="2"></path></marker><marker id="SvgjsMarker1836" markerWidth="16" markerHeight="16" refX="11" refY="8" viewBox="0 0 16 16" orient="auto" markerUnits="userSpaceOnUse" stroke-dasharray="0,0"><path id="SvgjsPath1837" d="M0,0 L10,8 L0,16" fill="none" stroke="#323232" stroke-width="1"></path></marker><marker id="SvgjsMarker1848" markerWidth="16" markerHeight="16" refX="11" refY="8" viewBox="0 0 16 16" orient="auto" markerUnits="userSpaceOnUse" stroke-dasharray="0,0"><path id="SvgjsPath1849" d="M0,0 L10,8 L0,16" fill="none" stroke="#323232" stroke-width="1"></path></marker><marker id="SvgjsMarker1874" markerWidth="14" markerHeight="12" refX="16" refY="6" viewBox="0 0 14 12" orient="auto" markerUnits="userSpaceOnUse" stroke-dasharray="0,0"><path id="SvgjsPath1875" d="M1,1 L14,6 L1,11L1,1" fill="#ffffff" stroke="#323232" stroke-width="2"></path></marker><marker id="SvgjsMarker1878" markerWidth="14" markerHeight="12" refX="16" refY="6" viewBox="0 0 14 12" orient="auto" markerUnits="userSpaceOnUse" stroke-dasharray="0,0"><path id="SvgjsPath1879" d="M1,1 L14,6 L1,11L1,1" fill="#ffffff" stroke="#323232" stroke-width="2"></path></marker><marker id="SvgjsMarker1892" markerWidth="16" markerHeight="16" refX="11" refY="8" viewBox="0 0 16 16" orient="auto" markerUnits="userSpaceOnUse" stroke-dasharray="0,0"><path id="SvgjsPath1893" d="M0,0 L10,8 L0,16" fill="none" stroke="#323232" stroke-width="1"></path></marker></defs><g id="SvgjsG1746" transform="translate(446,45)"><path id="SvgjsPath1747" d="M 0 4Q 0 0 4 0L 226 0Q 230 0 230 4L 230 56Q 230 60 226 60L 4 60Q 0 60 0 56Z" stroke="rgba(255,0,255,1)" stroke-width="2" fill-opacity="1" fill="#ffffff"></path><path id="SvgjsPath1748" d="M 0 30L 230 30" stroke="rgba(255,0,255,1)" stroke-width="2" fill="none"></path><path id="SvgjsPath1749" d="M 0 0L 230 0L 230 60L 0 60Z" stroke="none" fill="none"></path><g id="SvgjsG1750"><text id="SvgjsText1751" font-family="微软雅黑" text-anchor="middle" font-size="13px" width="210px" fill="#323232" font-weight="700" align="middle" lineHeight="125%" anchor="middle" family="微软雅黑" size="13px" weight="700" font-style="" opacity="1" y="5.375" transform="rotate(0)"><tspan id="SvgjsTspan1752" dy="16" x="115"><tspan id="SvgjsTspan1753" style="text-decoration:;">Worker</tspan></tspan></text></g><g id="SvgjsG1754"><text id="SvgjsText1755" font-family="微软雅黑" text-anchor="start" font-size="13px" width="210px" fill="#323232" font-weight="400" align="middle" lineHeight="125%" anchor="start" family="微软雅黑" size="13px" weight="400" font-style="" opacity="1" y="35.375" transform="rotate(0)"><tspan id="SvgjsTspan1756" dy="16" x="10"><tspan id="SvgjsTspan1757" style="text-decoration:;">+ doWorke</tspan></tspan></text></g></g><g id="SvgjsG1758" transform="translate(446,174)"><path id="SvgjsPath1759" d="M 0 4Q 0 0 4 0L 226 0Q 230 0 230 4L 230 86Q 230 90 226 90L 4 90Q 0 90 0 86Z" stroke="rgba(255,0,255,1)" stroke-width="2" fill-opacity="1" fill="#ffffff"></path><path id="SvgjsPath1760" d="M 0 30L 230 30M 0 60L 230 60" stroke="rgba(255,0,255,1)" stroke-width="2" fill="none"></path><path id="SvgjsPath1761" d="M 0 0L 230 0L 230 90L 0 90Z" stroke="none" fill="none"></path><g id="SvgjsG1762"><text id="SvgjsText1763" font-family="微软雅黑" text-anchor="middle" font-size="13px" width="210px" fill="#323232" font-weight="700" align="middle" lineHeight="125%" anchor="middle" family="微软雅黑" size="13px" weight="700" font-style="" opacity="1" y="5.375" transform="rotate(0)"><tspan id="SvgjsTspan1764" dy="16" x="115"><tspan id="SvgjsTspan1765" style="text-decoration:;">Coder</tspan></tspan></text></g><g id="SvgjsG1766"><text id="SvgjsText1767" font-family="微软雅黑" text-anchor="start" font-size="13px" width="210px" fill="#323232" font-weight="400" align="middle" lineHeight="125%" anchor="start" family="微软雅黑" size="13px" weight="400" font-style="" opacity="1" y="35.375" transform="rotate(0)"></text></g><g id="SvgjsG1768"><text id="SvgjsText1769" font-family="微软雅黑" text-anchor="start" font-size="13px" width="210px" fill="#323232" font-weight="400" align="middle" lineHeight="125%" anchor="start" family="微软雅黑" size="13px" weight="400" font-style="" opacity="1" y="65.375" transform="rotate(0)"><tspan id="SvgjsTspan1770" dy="16" x="10"><tspan id="SvgjsTspan1771" style="text-decoration:;">+ doWork</tspan></tspan></text></g></g><g id="SvgjsG1772"><path id="SvgjsPath1773" d="M562 172L562 138.5L562 138.5L562 105" stroke="#323232" stroke-width="2" fill="none" marker-end="url(#SvgjsMarker1774)"></path></g><g id="SvgjsG1776" transform="translate(853,164)"><path id="SvgjsPath1777" d="M 0 4Q 0 0 4 0L 226 0Q 230 0 230 4L 230 176Q 230 180 226 180L 4 180Q 0 180 0 176Z" stroke="rgba(186,104,200,1)" stroke-width="2" fill-opacity="1" fill="#ffffff"></path><path id="SvgjsPath1778" d="M 0 30L 230 30M 0 62L 230 62" stroke="rgba(186,104,200,1)" stroke-width="2" fill="none"></path><path id="SvgjsPath1779" d="M 0 0L 230 0L 230 180L 0 180Z" stroke="none" fill="none"></path><g id="SvgjsG1780"><text id="SvgjsText1781" font-family="微软雅黑" text-anchor="middle" font-size="13px" width="210px" fill="#323232" font-weight="700" align="middle" lineHeight="125%" anchor="middle" family="微软雅黑" size="13px" weight="700" font-style="" opacity="1" y="5.375" transform="rotate(0)"><tspan id="SvgjsTspan1782" dy="16" x="115"><tspan id="SvgjsTspan1783" style="text-decoration:;">DynamicProxy</tspan></tspan></text></g><g id="SvgjsG1784"><text id="SvgjsText1785" font-family="微软雅黑" text-anchor="start" font-size="13px" width="210px" fill="#323232" font-weight="400" align="middle" lineHeight="125%" anchor="start" family="微软雅黑" size="13px" weight="400" font-style="" opacity="1" y="28.375" transform="rotate(0)"><tspan id="SvgjsTspan1786" dy="16" x="10"><tspan id="SvgjsTspan1787" style="text-decoration:;">+ worker:Worker = null</tspan></tspan><tspan id="SvgjsTspan1788" dy="16" x="10"><tspan id="SvgjsTspan1789" style="text-decoration:;"> </tspan></tspan></text></g><g id="SvgjsG1790"><text id="SvgjsText1791" font-family="微软雅黑" text-anchor="start" font-size="13px" width="210px" fill="#323232" font-weight="400" align="middle" lineHeight="125%" anchor="start" family="微软雅黑" size="13px" weight="400" font-style="" opacity="1" y="60.375" transform="rotate(0)"><tspan id="SvgjsTspan1792" dy="16" x="10"><tspan id="SvgjsTspan1793" style="text-decoration:;">+ checks()</tspan></tspan><tspan id="SvgjsTspan1794" dy="16" x="10"><tspan id="SvgjsTspan1795" style="text-decoration:;">+ clean()</tspan></tspan><tspan id="SvgjsTspan1796" dy="16" x="10"><tspan id="SvgjsTspan1797" style="text-decoration:;"> </tspan></tspan><tspan id="SvgjsTspan1798" dy="16" x="10"><tspan id="SvgjsTspan1799" style="text-decoration:;">+ getProxy():Proxy0</tspan></tspan><tspan id="SvgjsTspan1800" dy="16" x="10"><tspan id="SvgjsTspan1801" style="text-decoration:;">+ setWorker(Worker)</tspan></tspan><tspan id="SvgjsTspan1802" dy="16" x="10"><tspan id="SvgjsTspan1803" style="text-decoration:;">+ invoke(Object,Method,Object[])</tspan></tspan></text></g></g><g id="SvgjsG1804" transform="translate(853,45)"><path id="SvgjsPath1805" d="M 0 4Q 0 0 4 0L 226 0Q 230 0 230 4L 230 56Q 230 60 226 60L 4 60Q 0 60 0 56Z" stroke="rgba(50,50,50,1)" stroke-width="2" fill-opacity="1" fill="#ffffff"></path><path id="SvgjsPath1806" d="M 0 30L 230 30" stroke="rgba(50,50,50,1)" stroke-width="2" fill="none"></path><path id="SvgjsPath1807" d="M 0 0L 230 0L 230 60L 0 60Z" stroke="none" fill="none"></path><g id="SvgjsG1808"><text id="SvgjsText1809" font-family="微软雅黑" text-anchor="middle" font-size="13px" width="210px" fill="#323232" font-weight="700" align="middle" lineHeight="125%" anchor="middle" family="微软雅黑" size="13px" weight="700" font-style="" opacity="1" y="5.375" transform="rotate(0)"><tspan id="SvgjsTspan1810" dy="16" x="115"><tspan id="SvgjsTspan1811" style="text-decoration:;">InvocationHandler</tspan></tspan></text></g><g id="SvgjsG1812"><text id="SvgjsText1813" font-family="微软雅黑" text-anchor="start" font-size="13px" width="210px" fill="#323232" font-weight="400" align="middle" lineHeight="125%" anchor="start" family="微软雅黑" size="13px" weight="400" font-style="" opacity="1" y="35.375" transform="rotate(0)"><tspan id="SvgjsTspan1814" dy="16" x="10"><tspan id="SvgjsTspan1815" style="text-decoration:;">+ invoke(Object,Method,Object[])</tspan></tspan></text></g></g><g id="SvgjsG1816"><path id="SvgjsPath1817" d="M968 164L968 134.5L968 134.5L968 105" stroke="#323232" stroke-width="2" fill="none" marker-end="url(#SvgjsMarker1818)"></path></g><g id="SvgjsG1820"><path id="SvgjsPath1821" d="M851 218L763.5 218L763.5 218L676 218" stroke="#323232" stroke-width="2" fill="none" marker-end="url(#SvgjsMarker1822)"></path></g><g id="SvgjsG1824" transform="translate(708,25)"><path id="SvgjsPath1825" d="M 0 0L 64 0L 80 16L 80 100L 0 100L 0 0Z" stroke="none" fill-opacity="1" fill="#ffffaa"></path><path id="SvgjsPath1826" d="M 64 0L 64 16L 80 16Z" stroke="none" fill-opacity="1" fill="#cdcdcd"></path><path id="SvgjsPath1827" d="M 0 0L 64 0L 80 16L 80 100L 0 100L 0 0Z" stroke="none" fill="none"></path><g id="SvgjsG1828"><text id="SvgjsText1829" font-family="微软雅黑" text-anchor="middle" font-size="13px" width="60px" fill="#323232" font-weight="400" align="middle" lineHeight="125%" anchor="middle" family="微软雅黑" size="13px" weight="400" font-style="" opacity="1" y="32.375" transform="rotate(0)"><tspan id="SvgjsTspan1830" dy="16" x="40"><tspan id="SvgjsTspan1831" style="text-decoration:;">工作类接</tspan></tspan><tspan id="SvgjsTspan1832" dy="16" x="40"><tspan id="SvgjsTspan1833" style="text-decoration:;">口</tspan></tspan></text></g></g><g id="SvgjsG1834"><path id="SvgjsPath1835" d="M708 75L692 75L692 75L676 75" stroke-dasharray="3,3" stroke="#323232" stroke-width="1" fill="none" marker-end="url(#SvgjsMarker1836)"></path></g><g id="SvgjsG1838" transform="translate(716,323)"><path id="SvgjsPath1839" d="M 0 0L 64 0L 80 16L 80 100L 0 100L 0 0Z" stroke="none" fill-opacity="1" fill="#ffffaa"></path><path id="SvgjsPath1840" d="M 64 0L 64 16L 80 16Z" stroke="none" fill-opacity="1" fill="#cdcdcd"></path><path id="SvgjsPath1841" d="M 0 0L 64 0L 80 16L 80 100L 0 100L 0 0Z" stroke="none" fill="none"></path><g id="SvgjsG1842"><text id="SvgjsText1843" font-family="微软雅黑" text-anchor="middle" font-size="13px" width="60px" fill="#323232" font-weight="400" align="middle" lineHeight="125%" anchor="middle" family="微软雅黑" size="13px" weight="400" font-style="" opacity="1" y="40.375" transform="rotate(0)"><tspan id="SvgjsTspan1844" dy="16" x="40"><tspan id="SvgjsTspan1845" style="text-decoration:;">动态代理</tspan></tspan></text></g></g><g id="SvgjsG1846"><path id="SvgjsPath1847" d="M756 323L756 249.44303797468353L853 249.44303797468353" stroke-dasharray="3,3" stroke="#323232" stroke-width="1" fill="none" marker-end="url(#SvgjsMarker1848)"></path></g><g id="SvgjsG1850" transform="translate(25,49)"><path id="SvgjsPath1851" d="M 0 4Q 0 0 4 0L 226 0Q 230 0 230 4L 230 56Q 230 60 226 60L 4 60Q 0 60 0 56Z" stroke="rgba(50,50,50,1)" stroke-width="2" fill-opacity="1" fill="#ffffff"></path><path id="SvgjsPath1852" d="M 0 30L 230 30" stroke="rgba(50,50,50,1)" stroke-width="2" fill="none"></path><path id="SvgjsPath1853" d="M 0 0L 230 0L 230 60L 0 60Z" stroke="none" fill="none"></path><g id="SvgjsG1854"><text id="SvgjsText1855" font-family="微软雅黑" text-anchor="middle" font-size="13px" width="210px" fill="#323232" font-weight="700" align="middle" lineHeight="125%" anchor="middle" family="微软雅黑" size="13px" weight="700" font-style="" opacity="1" y="5.375" transform="rotate(0)"><tspan id="SvgjsTspan1856" dy="16" x="115"><tspan id="SvgjsTspan1857" style="text-decoration:;">Proxy</tspan></tspan></text></g><g id="SvgjsG1858"><text id="SvgjsText1859" font-family="微软雅黑" text-anchor="start" font-size="13px" width="210px" fill="#323232" font-weight="400" align="middle" lineHeight="125%" anchor="start" family="微软雅黑" size="13px" weight="400" font-style="" opacity="1" y="35.375" transform="rotate(0)"></text></g></g><g id="SvgjsG1860" transform="translate(216,333)"><path id="SvgjsPath1861" d="M 0 4Q 0 0 4 0L 226 0Q 230 0 230 4L 230 86Q 230 90 226 90L 4 90Q 0 90 0 86Z" stroke="rgba(50,50,50,1)" stroke-width="2" fill-opacity="1" fill="#ffffff"></path><path id="SvgjsPath1862" d="M 0 30L 230 30M 0 60L 230 60" stroke="rgba(50,50,50,1)" stroke-width="2" fill="none"></path><path id="SvgjsPath1863" d="M 0 0L 230 0L 230 90L 0 90Z" stroke="none" fill="none"></path><g id="SvgjsG1864"><text id="SvgjsText1865" font-family="微软雅黑" text-anchor="middle" font-size="13px" width="210px" fill="#323232" font-weight="700" align="middle" lineHeight="125%" anchor="middle" family="微软雅黑" size="13px" weight="700" font-style="" opacity="1" y="5.375" transform="rotate(0)"><tspan id="SvgjsTspan1866" dy="16" x="115"><tspan id="SvgjsTspan1867" style="text-decoration:;">$Proxy0</tspan></tspan></text></g><g id="SvgjsG1868"><text id="SvgjsText1869" font-family="微软雅黑" text-anchor="start" font-size="13px" width="210px" fill="#323232" font-weight="400" align="middle" lineHeight="125%" anchor="start" family="微软雅黑" size="13px" weight="400" font-style="" opacity="1" y="35.375" transform="rotate(0)"></text></g><g id="SvgjsG1870"><text id="SvgjsText1871" font-family="微软雅黑" text-anchor="start" font-size="13px" width="210px" fill="#323232" font-weight="400" align="middle" lineHeight="125%" anchor="start" family="微软雅黑" size="13px" weight="400" font-style="" opacity="1" y="65.375" transform="rotate(0)"></text></g></g><g id="SvgjsG1872"><path id="SvgjsPath1873" d="M331 333L331 221L140 221L140 109" stroke="#323232" stroke-width="2" fill="none" marker-end="url(#SvgjsMarker1874)"></path></g><g id="SvgjsG1876"><path id="SvgjsPath1877" d="M331 333L331 75L446 75" stroke="#323232" stroke-width="2" fill="none" marker-end="url(#SvgjsMarker1878)"></path></g><g id="SvgjsG1880" transform="translate(507,329.5)"><path id="SvgjsPath1881" d="M 0 0L 149 0L 165 16L 165 97L 0 97L 0 0Z" stroke="none" fill-opacity="1" fill="#ffffaa"></path><path id="SvgjsPath1882" d="M 149 0L 149 16L 165 16Z" stroke="none" fill-opacity="1" fill="#cdcdcd"></path><path id="SvgjsPath1883" d="M 0 0L 149 0L 165 16L 165 97L 0 97L 0 0Z" stroke="none" fill="none"></path><g id="SvgjsG1884"><text id="SvgjsText1885" font-family="微软雅黑" text-anchor="middle" font-size="13px" width="145px" fill="#323232" font-weight="400" align="middle" lineHeight="125%" anchor="middle" family="微软雅黑" size="13px" weight="400" font-style="" opacity="1" y="30.875" transform="rotate(0)"><tspan id="SvgjsTspan1886" dy="16" x="82.5"><tspan id="SvgjsTspan1887" style="text-decoration:;">动态代理对的 getProxy </tspan></tspan><tspan id="SvgjsTspan1888" dy="16" x="82.5"><tspan id="SvgjsTspan1889" style="text-decoration:;">要返回的类型</tspan></tspan></text></g></g><g id="SvgjsG1890"><path id="SvgjsPath1891" d="M560 380L503 380L503 380L446 380" stroke-dasharray="3,3" stroke="#323232" stroke-width="1" fill="none" marker-end="url(#SvgjsMarker1892)"></path></g></svg>