<svg id="SvgjsSvg1966" width="1464.84375" height="511.28125" xmlns="http://www.w3.org/2000/svg" version="1.1" xmlns:xlink="http://www.w3.org/1999/xlink" xmlns:svgjs="http://svgjs.com/svgjs"><defs id="SvgjsDefs1967"><marker id="SvgjsMarker1998" markerWidth="14" markerHeight="12" refX="16" refY="6" viewBox="0 0 14 12" orient="auto" markerUnits="userSpaceOnUse" stroke-dasharray="0,0"><path id="SvgjsPath1999" d="M1,1 L14,6 L1,11L1,1" fill="#ffffff" stroke="#323232" stroke-width="2"></path></marker><marker id="SvgjsMarker2002" markerWidth="16" markerHeight="16" refX="11" refY="8" viewBox="0 0 16 16" orient="auto" markerUnits="userSpaceOnUse" stroke-dasharray="0,0"><path id="SvgjsPath2003" d="M0,0 L10,8 L0,16" fill="none" stroke="#323232" stroke-width="2"></path></marker><marker id="SvgjsMarker2080" markerWidth="16" markerHeight="12" refX="16" refY="6" viewBox="0 0 16 12" orient="auto" markerUnits="userSpaceOnUse" stroke-dasharray="0,0"><path id="SvgjsPath2081" d="M0,2 L14,6 L0,11 L0,2" fill="#ba68c8" stroke="#ba68c8" stroke-width="2"></path></marker><marker id="SvgjsMarker2088" markerWidth="16" markerHeight="12" refX="16" refY="6" viewBox="0 0 16 12" orient="auto" markerUnits="userSpaceOnUse" stroke-dasharray="0,0"><path id="SvgjsPath2089" d="M0,2 L14,6 L0,11 L0,2" fill="#ba68c8" stroke="#ba68c8" stroke-width="2"></path></marker><marker id="SvgjsMarker2096" markerWidth="16" markerHeight="16" refX="11" refY="8" viewBox="0 0 16 16" orient="auto" markerUnits="userSpaceOnUse" stroke-dasharray="0,0"><path id="SvgjsPath2097" d="M0,0 L10,8 L0,16" fill="none" stroke="#323232" stroke-width="2"></path></marker><marker id="SvgjsMarker2100" markerWidth="16" markerHeight="16" refX="11" refY="8" viewBox="0 0 16 16" orient="auto" markerUnits="userSpaceOnUse" stroke-dasharray="0,0"><path id="SvgjsPath2101" d="M0,0 L10,8 L0,16" fill="none" stroke="#323232" stroke-width="2"></path></marker></defs><g id="SvgjsG1968" transform="translate(1012.6027397260273,210.2052401746725)"><path id="SvgjsPath1969" d="M 0 4Q 0 0 4 0L 264.99128268991285 0Q 268.99128268991285 0 268.99128268991285 4L 268.99128268991285 91.62227074235808Q 268.99128268991285 95.62227074235808 264.99128268991285 95.62227074235808L 4 95.62227074235808Q 0 95.62227074235808 0 91.62227074235808Z" stroke="rgba(50,50,50,1)" stroke-width="2" fill-opacity="1" fill="#ffffff"></path><path id="SvgjsPath1970" d="M 0 30L 268.99128268991285 30M 0 60L 268.99128268991285 60" stroke="rgba(50,50,50,1)" stroke-width="2" fill="none"></path><path id="SvgjsPath1971" d="M 0 0L 268.99128268991285 0L 268.99128268991285 95.62227074235808L 0 95.62227074235808Z" stroke="none" fill="none"></path><g id="SvgjsG1972"><text id="SvgjsText1973" font-family="微软雅黑" text-anchor="middle" font-size="13px" width="249px" fill="#323232" font-weight="700" align="middle" lineHeight="125%" anchor="middle" family="微软雅黑" size="13px" weight="700" font-style="" opacity="1" y="5.375" transform="rotate(0)"><tspan id="SvgjsTspan1974" dy="16" x="134.5"><tspan id="SvgjsTspan1975" style="text-decoration:;">GreeterImplBase</tspan></tspan></text></g><g id="SvgjsG1976"><text id="SvgjsText1977" font-family="微软雅黑" text-anchor="start" font-size="13px" width="249px" fill="#323232" font-weight="400" align="middle" lineHeight="125%" anchor="start" family="微软雅黑" size="13px" weight="400" font-style="" opacity="1" y="35.375" transform="rotate(0)"></text></g><g id="SvgjsG1978"><text id="SvgjsText1979" font-family="微软雅黑" text-anchor="start" font-size="13px" width="249px" fill="#323232" font-weight="400" align="middle" lineHeight="125%" anchor="start" family="微软雅黑" size="13px" weight="400" font-style="" opacity="1" y="66.375" transform="rotate(0)"><tspan id="SvgjsTspan1980" dy="16" x="10"><tspan id="SvgjsTspan1981" style="text-decoration:;">+ sayHello(HelloRequest) return void</tspan></tspan></text></g></g><g id="SvgjsG1982" transform="translate(1012.6027397260273,387.3580786026201)"><path id="SvgjsPath1983" d="M 0 4Q 0 0 4 0L 264.99128268991285 0Q 268.99128268991285 0 268.99128268991285 4L 268.99128268991285 84.57641921397381Q 268.99128268991285 88.57641921397381 264.99128268991285 88.57641921397381L 4 88.57641921397381Q 0 88.57641921397381 0 84.57641921397381Z" stroke="rgba(229,115,115,1)" stroke-width="2" fill-opacity="1" fill="#ffffff"></path><path id="SvgjsPath1984" d="M 0 30L 268.99128268991285 30M 0 60L 268.99128268991285 60" stroke="rgba(229,115,115,1)" stroke-width="2" fill="none"></path><path id="SvgjsPath1985" d="M 0 0L 268.99128268991285 0L 268.99128268991285 88.57641921397381L 0 88.57641921397381Z" stroke="none" fill="none"></path><g id="SvgjsG1986"><text id="SvgjsText1987" font-family="微软雅黑" text-anchor="middle" font-size="13px" width="249px" fill="#323232" font-weight="700" align="middle" lineHeight="125%" anchor="middle" family="微软雅黑" size="13px" weight="700" font-style="" opacity="1" y="5.375" transform="rotate(0)"><tspan id="SvgjsTspan1988" dy="16" x="134.5"><tspan id="SvgjsTspan1989" style="text-decoration:;">GreeterImpl</tspan></tspan></text></g><g id="SvgjsG1990"><text id="SvgjsText1991" font-family="微软雅黑" text-anchor="start" font-size="13px" width="249px" fill="#323232" font-weight="400" align="middle" lineHeight="125%" anchor="start" family="微软雅黑" size="13px" weight="400" font-style="" opacity="1" y="35.375" transform="rotate(0)"></text></g><g id="SvgjsG1992"><text id="SvgjsText1993" font-family="微软雅黑" text-anchor="start" font-size="13px" width="249px" fill="#323232" font-weight="400" align="middle" lineHeight="125%" anchor="start" family="微软雅黑" size="13px" weight="400" font-style="" opacity="1" y="66.375" transform="rotate(0)"><tspan id="SvgjsTspan1994" dy="16" x="10"><tspan id="SvgjsTspan1995" style="text-decoration:;">+ sayHello(HelloRequest) return void</tspan></tspan></text></g></g><g id="SvgjsG1996"><path id="SvgjsPath1997" d="M1147.0983810709838 387.3580786026201L1147.0983810709838 346.5927947598253L1147.0983810709838 346.5927947598253L1147.0983810709838 305.82751091703057" stroke="#323232" stroke-width="2" fill="none" marker-end="url(#SvgjsMarker1998)"></path></g><g id="SvgjsG2000"><path id="SvgjsPath2001" d="M869.1407222914072 431.64628820960695L940.8717310087172 431.64628820960695L940.8717310087172 431.64628820960695L1012.6027397260273 431.64628820960695" stroke-dasharray="8,5" stroke="#323232" stroke-width="2" fill="none" marker-end="url(#SvgjsMarker2002)"></path></g><g id="SvgjsG2004" transform="translate(640,377.29257641921396)"><path id="SvgjsPath2005" d="M 0 4Q 0 0 4 0L 225.1407222914072 0Q 229.1407222914072 0 229.1407222914072 4L 229.1407222914072 104.70742358078603Q 229.1407222914072 108.70742358078603 225.1407222914072 108.70742358078603L 4 108.70742358078603Q 0 108.70742358078603 0 104.70742358078603Z" stroke="rgba(229,115,115,1)" stroke-width="2" fill-opacity="1" fill="#ffffff"></path><path id="SvgjsPath2006" d="M 0 30L 229.1407222914072 30M 0 62L 229.1407222914072 62" stroke="rgba(229,115,115,1)" stroke-width="2" fill="none"></path><path id="SvgjsPath2007" d="M 0 0L 229.1407222914072 0L 229.1407222914072 108.70742358078603L 0 108.70742358078603Z" stroke="none" fill="none"></path><g id="SvgjsG2008"><text id="SvgjsText2009" font-family="微软雅黑" text-anchor="middle" font-size="13px" width="210px" fill="#323232" font-weight="700" align="middle" lineHeight="125%" anchor="middle" family="微软雅黑" size="13px" weight="700" font-style="" opacity="1" y="5.375" transform="rotate(0)"><tspan id="SvgjsTspan2010" dy="16" x="115"><tspan id="SvgjsTspan2011" style="text-decoration:;">GreeterServer</tspan></tspan></text></g><g id="SvgjsG2012"><text id="SvgjsText2013" font-family="微软雅黑" text-anchor="start" font-size="13px" width="210px" fill="#323232" font-weight="400" align="middle" lineHeight="125%" anchor="start" family="微软雅黑" size="13px" weight="400" font-style="" opacity="1" y="35.375" transform="rotate(0)"></text></g><g id="SvgjsG2014"><text id="SvgjsText2015" font-family="微软雅黑" text-anchor="start" font-size="13px" width="210px" fill="#323232" font-weight="400" align="middle" lineHeight="125%" anchor="start" family="微软雅黑" size="13px" weight="400" font-style="" opacity="1" y="60.375" transform="rotate(0)"><tspan id="SvgjsTspan2016" dy="16" x="10"><tspan id="SvgjsTspan2017" style="text-decoration:;">+ start()</tspan></tspan><tspan id="SvgjsTspan2018" dy="16" x="10"><tspan id="SvgjsTspan2019" style="text-decoration:;">+ stop()</tspan></tspan><tspan id="SvgjsTspan2020" dy="16" x="10"><tspan id="SvgjsTspan2021" style="text-decoration:;">- blockUntilShutdown()</tspan></tspan></text></g></g><g id="SvgjsG2022" transform="translate(1210.8592777085928,25)"><path id="SvgjsPath2023" d="M 0 4Q 0 0 4 0L 225.1407222914072 0Q 229.1407222914072 0 229.1407222914072 4L 229.1407222914072 86.58951965065502Q 229.1407222914072 90.58951965065502 225.1407222914072 90.58951965065502L 4 90.58951965065502Q 0 90.58951965065502 0 86.58951965065502Z" stroke="rgba(50,50,50,1)" stroke-width="2" fill-opacity="1" fill="#ffffff"></path><path id="SvgjsPath2024" d="M 0 30L 229.1407222914072 30M 0 62L 229.1407222914072 62" stroke="rgba(50,50,50,1)" stroke-width="2" fill="none"></path><path id="SvgjsPath2025" d="M 0 0L 229.1407222914072 0L 229.1407222914072 90.58951965065502L 0 90.58951965065502Z" stroke="none" fill="none"></path><g id="SvgjsG2026"><text id="SvgjsText2027" font-family="微软雅黑" text-anchor="middle" font-size="13px" width="210px" fill="#323232" font-weight="700" align="middle" lineHeight="125%" anchor="middle" family="微软雅黑" size="13px" weight="700" font-style="" opacity="1" y="5.375" transform="rotate(0)"><tspan id="SvgjsTspan2028" dy="16" x="115"><tspan id="SvgjsTspan2029" style="text-decoration:;">HelloReply</tspan></tspan></text></g><g id="SvgjsG2030"><text id="SvgjsText2031" font-family="微软雅黑" text-anchor="start" font-size="13px" width="210px" fill="#323232" font-weight="400" align="middle" lineHeight="125%" anchor="start" family="微软雅黑" size="13px" weight="400" font-style="" opacity="1" y="35.375" transform="rotate(0)"><tspan id="SvgjsTspan2032" dy="16" x="10"><tspan id="SvgjsTspan2033" style="text-decoration:;">+ message:string</tspan></tspan></text></g><g id="SvgjsG2034"><text id="SvgjsText2035" font-family="微软雅黑" text-anchor="start" font-size="13px" width="210px" fill="#323232" font-weight="400" align="middle" lineHeight="125%" anchor="start" family="微软雅黑" size="13px" weight="400" font-style="" opacity="1" y="67.375" transform="rotate(0)"></text></g></g><g id="SvgjsG2036" transform="translate(910.983810709838,25)"><path id="SvgjsPath2037" d="M 0 4Q 0 0 4 0L 225.1407222914072 0Q 229.1407222914072 0 229.1407222914072 4L 229.1407222914072 86.58951965065502Q 229.1407222914072 90.58951965065502 225.1407222914072 90.58951965065502L 4 90.58951965065502Q 0 90.58951965065502 0 86.58951965065502Z" stroke="rgba(50,50,50,1)" stroke-width="2" fill-opacity="1" fill="#ffffff"></path><path id="SvgjsPath2038" d="M 0 30L 229.1407222914072 30M 0 60L 229.1407222914072 60" stroke="rgba(50,50,50,1)" stroke-width="2" fill="none"></path><path id="SvgjsPath2039" d="M 0 0L 229.1407222914072 0L 229.1407222914072 90.58951965065502L 0 90.58951965065502Z" stroke="none" fill="none"></path><g id="SvgjsG2040"><text id="SvgjsText2041" font-family="微软雅黑" text-anchor="middle" font-size="13px" width="210px" fill="#323232" font-weight="700" align="middle" lineHeight="125%" anchor="middle" family="微软雅黑" size="13px" weight="700" font-style="" opacity="1" y="5.375" transform="rotate(0)"><tspan id="SvgjsTspan2042" dy="16" x="115"><tspan id="SvgjsTspan2043" style="text-decoration:;">HelloRequest</tspan></tspan></text></g><g id="SvgjsG2044"><text id="SvgjsText2045" font-family="微软雅黑" text-anchor="start" font-size="13px" width="210px" fill="#323232" font-weight="400" align="middle" lineHeight="125%" anchor="start" family="微软雅黑" size="13px" weight="400" font-style="" opacity="1" y="35.375" transform="rotate(0)"><tspan id="SvgjsTspan2046" dy="16" x="10"><tspan id="SvgjsTspan2047" style="text-decoration:;">+ name:string</tspan></tspan></text></g><g id="SvgjsG2048"><text id="SvgjsText2049" font-family="微软雅黑" text-anchor="start" font-size="13px" width="210px" fill="#323232" font-weight="400" align="middle" lineHeight="125%" anchor="start" family="微软雅黑" size="13px" weight="400" font-style="" opacity="1" y="65.375" transform="rotate(0)"></text></g></g><g id="SvgjsG2050" transform="translate(134,87)"><path id="SvgjsPath2051" d="M 50 30L 50 250" stroke-dasharray="3,4" stroke="rgba(50,50,50,1)" stroke-width="2" fill="none"></path><path id="SvgjsPath2052" d="M 0 0L 100 0L 100 30L 0 30Z" stroke="rgba(50,50,50,1)" stroke-width="2" fill-opacity="1" fill="#ffffff"></path><g id="SvgjsG2053"><text id="SvgjsText2054" font-family="微软雅黑" text-anchor="middle" font-size="13px" width="80px" fill="#323232" font-weight="400" align="middle" lineHeight="125%" anchor="middle" family="微软雅黑" size="13px" weight="400" font-style="" opacity="1" y="5.375" transform="rotate(0)"><tspan id="SvgjsTspan2055" dy="16" x="50"><tspan id="SvgjsTspan2056" style="text-decoration:;">GreeterStub</tspan></tspan></text></g></g><g id="SvgjsG2057" transform="translate(25,381.9344978165939)"><path id="SvgjsPath2058" d="M 0 4Q 0 0 4 0L 314 0Q 318 0 318 4L 318 90Q 318 94 314 94L 4 94Q 0 94 0 90Z" stroke="rgba(50,50,50,1)" stroke-width="2" fill-opacity="1" fill="#ffffff"></path><path id="SvgjsPath2059" d="M 0 30L 318 30M 0 60L 318 60" stroke="rgba(50,50,50,1)" stroke-width="2" fill="none"></path><path id="SvgjsPath2060" d="M 0 0L 318 0L 318 94L 0 94Z" stroke="none" fill="none"></path><g id="SvgjsG2061"><text id="SvgjsText2062" font-family="微软雅黑" text-anchor="middle" font-size="13px" width="298px" fill="#323232" font-weight="700" align="middle" lineHeight="125%" anchor="middle" family="微软雅黑" size="13px" weight="700" font-style="" opacity="1" y="5.375" transform="rotate(0)"><tspan id="SvgjsTspan2063" dy="16" x="159"><tspan id="SvgjsTspan2064" style="text-decoration:;">GreeterStub</tspan></tspan></text></g><g id="SvgjsG2065"><text id="SvgjsText2066" font-family="微软雅黑" text-anchor="start" font-size="13px" width="298px" fill="#323232" font-weight="400" align="middle" lineHeight="125%" anchor="start" family="微软雅黑" size="13px" weight="400" font-style="" opacity="1" y="35.375" transform="rotate(0)"></text></g><g id="SvgjsG2067"><text id="SvgjsText2068" font-family="微软雅黑" text-anchor="start" font-size="13px" width="298px" fill="#323232" font-weight="400" align="middle" lineHeight="125%" anchor="start" family="微软雅黑" size="13px" weight="400" font-style="" opacity="1" y="66.375" transform="rotate(0)"><tspan id="SvgjsTspan2069" dy="16" x="10"><tspan id="SvgjsTspan2070" style="text-decoration:;">+ SayHello(HelloRequest) return HelloReply</tspan></tspan></text></g></g><g id="SvgjsG2071" transform="translate(694.3345636148985,87)"><path id="SvgjsPath2072" d="M 56.96707797196893 30L 56.96707797196893 250" stroke-dasharray="3,4" stroke="rgba(50,50,50,1)" stroke-width="2" fill="none"></path><path id="SvgjsPath2073" d="M 0 0L 113.93415594393787 0L 113.93415594393787 30L 0 30Z" stroke="rgba(50,50,50,1)" stroke-width="2" fill-opacity="1" fill="#ffffff"></path><g id="SvgjsG2074"><text id="SvgjsText2075" font-family="微软雅黑" text-anchor="middle" font-size="13px" width="94px" fill="#323232" font-weight="400" align="middle" lineHeight="125%" anchor="middle" family="微软雅黑" size="13px" weight="400" font-style="" opacity="1" y="5.375" transform="rotate(0)"><tspan id="SvgjsTspan2076" dy="16" x="57"><tspan id="SvgjsTspan2077" style="text-decoration:;">GreeterImpl</tspan></tspan></text></g></g><g id="SvgjsG2078"><path id="SvgjsPath2079" d="M199 157L467.8656402205819 157L467.8656402205819 159L736.7312804411638 159" stroke="#ba68c8" stroke-width="2" fill="none" marker-end="url(#SvgjsMarker2080)"></path><rect id="SvgjsRect2082" width="148" height="16" x="393.8656402205819" y="150" fill="#ffffff"></rect><text id="SvgjsText2083" font-family="微软雅黑" text-anchor="middle" font-size="13px" width="148px" fill="#323232" font-weight="400" align="top" lineHeight="16px" anchor="middle" family="微软雅黑" size="13px" weight="400" font-style="" opacity="1" y="148.375" transform="rotate(0)"><tspan id="SvgjsTspan2084" dy="16" x="467.8656402205819"><tspan id="SvgjsTspan2085" style="text-decoration:;">1:sayHello(HelloRequest)</tspan></tspan></text></g><g id="SvgjsG2086"><path id="SvgjsPath2087" d="M736.4641016151378 196L467.7320508075689 196L467.7320508075689 199L199 199" stroke-dasharray="8,5" stroke="#ba68c8" stroke-width="2" fill="none" marker-end="url(#SvgjsMarker2088)"></path><rect id="SvgjsRect2090" width="101" height="16" x="417.2320508075689" y="189.5" fill="#ffffff"></rect><text id="SvgjsText2091" font-family="微软雅黑" text-anchor="middle" font-size="13px" width="101px" fill="#323232" font-weight="400" align="top" lineHeight="16px" anchor="middle" family="微软雅黑" size="13px" weight="400" font-style="" opacity="1" y="187.875" transform="rotate(0)"><tspan id="SvgjsTspan2092" dy="16" x="467.7320508075689"><tspan id="SvgjsTspan2093" style="text-decoration:;">2:返回HelloReply</tspan></tspan></text></g><g id="SvgjsG2094"><path id="SvgjsPath2095" d="M1147.0983810709838 210.2052401746725C 1147.0983810709838 129.45458982647307 1325.4296388542964 196.34016999885444 1325.4296388542964 115.589519650655" stroke-dasharray="8,5" stroke="#323232" stroke-width="2" fill="none" marker-end="url(#SvgjsMarker2096)"></path></g><g id="SvgjsG2098"><path id="SvgjsPath2099" d="M1147.0983810709838 210.2052401746725C 1147.0983810709838 148.5933849984665 1025.5541718555417 177.201374826861 1025.5541718555417 115.589519650655" stroke-dasharray="8,5" stroke="#323232" stroke-width="2" fill="none" marker-end="url(#SvgjsMarker2100)"></path></g><g id="SvgjsG2102" transform="translate(169,133)"><path id="SvgjsPath2103" d="M 0 4Q 0 0 4 0L 26 0Q 30 0 30 4L 30 96Q 30 100 26 100L 4 100Q 0 100 0 96L 0 4Z" stroke="rgba(200,230,201,1)" stroke-width="2" fill-opacity="1" fill="#ffffff"></path></g><g id="SvgjsG2104" transform="translate(736.3016415868674,148)"><path id="SvgjsPath2105" d="M 0 4Q 0 0 4 0L 26 0Q 30 0 30 4L 30 51Q 30 55 26 55L 4 55Q 0 55 0 51L 0 4Z" stroke="rgba(200,230,201,1)" stroke-width="2" fill-opacity="1" fill="#ffffff"></path></g></svg>